<?xml version="1.0" encoding="utf-8"?>
<!-- Generator: Adobe Illustrator 23.0.1, SVG Export Plug-In . SVG Version: 6.00 Build 0)  -->
<svg version="1.1" id="aa7bae02-e79e-4d6b-a496-aba15f39787c"
	 xmlns="http://www.w3.org/2000/svg" xmlns:xlink="http://www.w3.org/1999/xlink" x="0px" y="0px" viewBox="0 0 1144 617.3"
	 style="enable-background:new 0 0 1144 617.3;" xml:space="preserve">
<style type="text/css">
	.st0{opacity:0.1;fill:#6C63FF;enable-background:new    ;}
	.st1{opacity:0.2;fill:#6C63FF;enable-background:new    ;}
	.st2{fill:#6C63FF;}
	.st3{opacity:0.7;fill:#6C63FF;enable-background:new    ;}
	.st4{opacity:0.4;fill:#6C63FF;enable-background:new    ;}
	.st5{fill:#767D9F;}
	.st6{fill:#AE6E79;}
	.st7{fill:#4C4981;}
	.st8{fill:#504F60;}
	.st9{fill:#9C9CA1;}
	.st10{opacity:5.000000e-02;enable-background:new    ;}
	.st11{opacity:0.1;enable-background:new    ;}
	.st12{fill:#FFFFFF;}
	.st13{opacity:0.1;stroke:#4C4981;stroke-miterlimit:10;enable-background:new    ;}
	.st14{fill:#444053;}
</style>
<title>developer activity</title>
<g>
	<path class="st0" d="M827.9,347.9c0,7.5-1,15-3.1,22.2c-2,7-4.9,13.6-8.6,19.8c0,22.4-15.1,41.8-37.1,51c-9.2,3.8-19,5.8-29,5.7
		H413.3c-18,0-34.7-4.9-48.4-13.1c-3.9-2.4-7.6-5-11.1-8c-15.2-13.1-24.6-31.1-24.6-51.1c-8.5-13.1-13.1-28.5-13-44.2
		c0-32.8,19.4-61,47.2-73.5c3.7-1.7,7.5-3,11.4-4.1c1.4-0.4,2.8-0.7,4.2-1c3.8-0.8,7.6-1.3,11.4-1.6c1.4-0.1,2.8-0.1,4.2-0.1h0.8
		c1.5,0,3.1,0.1,4.6,0.1l0.5-0.8c0.6-1,1.2-2,1.9-3c1.2-1.8,2.4-3.6,3.7-5.4c1.3-1.9,2.7-3.7,4.2-5.5l0.4-0.4c0.8-1,1.7-2,2.5-3
		c2.7-3.1,5.5-6.2,8.5-9.1c32.3-31.6,82.8-52,139.6-52c44.2,0,84.6,12.3,115.6,32.7c11.7-6.6,25-10.1,38.4-10.1
		c43.7,0,79.2,36,79.2,80.3c0,2.8-0.2,5.6-0.4,8.4C815.3,297.1,827.9,321.7,827.9,347.9z"/>
	<path class="st1" d="M421.5,222.6v9.1H413C415.7,228.6,418.5,225.5,421.5,222.6z"/>
	<rect x="425.7" y="220.3" class="st1" width="11.4" height="11.4"/>
	<rect x="441.3" y="220.3" class="st1" width="11.4" height="11.4"/>
	<rect x="456.9" y="220.3" class="st1" width="11.4" height="11.4"/>
	<rect x="472.5" y="220.3" class="st1" width="11.4" height="11.4"/>
	<rect x="488.1" y="220.3" class="st1" width="11.4" height="11.4"/>
	<rect x="503.7" y="220.3" class="st2" width="11.4" height="11.4"/>
	<rect x="519.3" y="220.3" class="st1" width="11.4" height="11.4"/>
	<rect x="534.9" y="220.3" class="st1" width="11.4" height="11.4"/>
	<rect x="550.5" y="220.3" class="st1" width="11.4" height="11.4"/>
	<rect x="566.1" y="220.3" class="st2" width="11.4" height="11.4"/>
	<rect x="581.7" y="220.3" class="st1" width="11.4" height="11.4"/>
	<rect x="597.3" y="220.3" class="st1" width="11.4" height="11.4"/>
	<rect x="612.9" y="220.3" class="st1" width="11.4" height="11.4"/>
	<rect x="628.5" y="220.3" class="st1" width="11.4" height="11.4"/>
	<rect x="644.1" y="220.3" class="st1" width="11.4" height="11.4"/>
	<rect x="659.7" y="220.3" class="st1" width="11.4" height="11.4"/>
	<rect x="675.3" y="220.3" class="st2" width="11.4" height="11.4"/>
	<rect x="690.9" y="220.3" class="st2" width="11.4" height="11.4"/>
	<rect x="706.5" y="220.3" class="st1" width="11.4" height="11.4"/>
	<rect x="722.1" y="220.3" class="st1" width="11.4" height="11.4"/>
	<rect x="737.7" y="220.3" class="st2" width="11.4" height="11.4"/>
	<rect x="753.3" y="220.3" class="st2" width="11.4" height="11.4"/>
	<path class="st2" d="M406,240.7v5.4h-3.7C403.5,244.3,404.7,242.5,406,240.7z"/>
	<rect x="410.1" y="234.7" class="st1" width="11.4" height="11.4"/>
	<rect x="425.7" y="234.7" class="st2" width="11.4" height="11.4"/>
	<rect x="441.3" y="234.7" class="st1" width="11.4" height="11.4"/>
	<rect x="456.9" y="234.7" class="st3" width="11.4" height="11.4"/>
	<rect x="472.5" y="234.7" class="st1" width="11.4" height="11.4"/>
	<rect x="488.1" y="234.7" class="st4" width="11.4" height="11.4"/>
	<rect x="503.7" y="234.7" class="st2" width="11.4" height="11.4"/>
	<rect x="519.3" y="234.7" class="st4" width="11.4" height="11.4"/>
	<rect x="534.9" y="234.7" class="st1" width="11.4" height="11.4"/>
	<rect x="550.5" y="234.7" class="st4" width="11.4" height="11.4"/>
	<rect x="566.1" y="234.7" class="st2" width="11.4" height="11.4"/>
	<rect x="581.7" y="234.7" class="st4" width="11.4" height="11.4"/>
	<rect x="597.3" y="234.7" class="st4" width="11.4" height="11.4"/>
	<rect x="612.9" y="234.7" class="st1" width="11.4" height="11.4"/>
	<rect x="628.5" y="234.7" class="st4" width="11.4" height="11.4"/>
	<rect x="644.1" y="234.7" class="st4" width="11.4" height="11.4"/>
	<rect x="659.7" y="234.7" class="st1" width="11.4" height="11.4"/>
	<rect x="675.3" y="234.7" class="st1" width="11.4" height="11.4"/>
	<rect x="690.9" y="234.7" class="st4" width="11.4" height="11.4"/>
	<rect x="706.5" y="234.7" class="st1" width="11.4" height="11.4"/>
	<rect x="722.1" y="234.7" class="st2" width="11.4" height="11.4"/>
	<rect x="737.7" y="234.7" class="st2" width="11.4" height="11.4"/>
	<rect x="753.3" y="234.7" class="st2" width="11.4" height="11.4"/>
	<path class="st1" d="M374.8,252.6v8h-11.4v-3.9C367,255,370.9,253.7,374.8,252.6z"/>
	<polygon class="st1" points="390.4,250 390.4,260.6 378.9,260.6 378.9,251.6 	"/>
	<rect x="394.5" y="249.2" class="st2" width="11.4" height="11.4"/>
	<rect x="410.1" y="249.2" class="st3" width="11.4" height="11.4"/>
	<rect x="425.7" y="249.2" class="st2" width="11.4" height="11.4"/>
	<rect x="441.3" y="249.2" class="st3" width="11.4" height="11.4"/>
	<rect x="456.9" y="249.2" class="st3" width="11.4" height="11.4"/>
	<rect x="472.5" y="249.2" class="st1" width="11.4" height="11.4"/>
	<rect x="488.1" y="249.2" class="st4" width="11.4" height="11.4"/>
	<rect x="503.7" y="249.2" class="st4" width="11.4" height="11.4"/>
	<rect x="519.3" y="249.2" class="st2" width="11.4" height="11.4"/>
	<rect x="534.9" y="249.2" class="st1" width="11.4" height="11.4"/>
	<rect x="550.5" y="249.2" class="st4" width="11.4" height="11.4"/>
	<rect x="566.1" y="249.2" class="st2" width="11.4" height="11.4"/>
	<rect x="581.7" y="249.2" class="st1" width="11.4" height="11.4"/>
	<rect x="597.3" y="249.2" class="st4" width="11.4" height="11.4"/>
	<rect x="612.9" y="249.2" class="st1" width="11.4" height="11.4"/>
	<rect x="628.5" y="249.2" class="st2" width="11.4" height="11.4"/>
	<rect x="644.1" y="249.2" class="st1" width="11.4" height="11.4"/>
	<rect x="659.7" y="249.2" class="st3" width="11.4" height="11.4"/>
	<rect x="675.3" y="249.2" class="st3" width="11.4" height="11.4"/>
	<rect x="690.9" y="249.2" class="st4" width="11.4" height="11.4"/>
	<rect x="706.5" y="249.2" class="st1" width="11.4" height="11.4"/>
	<rect x="722.1" y="249.2" class="st2" width="11.4" height="11.4"/>
	<rect x="737.7" y="249.2" class="st2" width="11.4" height="11.4"/>
	<rect x="753.3" y="249.2" class="st2" width="11.4" height="11.4"/>
	<rect x="363.3" y="263.6" class="st1" width="11.4" height="11.4"/>
	<rect x="378.9" y="263.6" class="st1" width="11.4" height="11.4"/>
	<rect x="394.5" y="263.6" class="st1" width="11.4" height="11.4"/>
	<rect x="410.1" y="263.6" class="st1" width="11.4" height="11.4"/>
	<rect x="425.7" y="263.6" class="st2" width="11.4" height="11.4"/>
	<rect x="441.3" y="263.6" class="st3" width="11.4" height="11.4"/>
	<rect x="456.9" y="263.6" class="st3" width="11.4" height="11.4"/>
	<rect x="472.5" y="263.6" class="st1" width="11.4" height="11.4"/>
	<rect x="488.1" y="263.6" class="st1" width="11.4" height="11.4"/>
	<rect x="503.7" y="263.6" class="st4" width="11.4" height="11.4"/>
	<rect x="519.3" y="263.6" class="st4" width="11.4" height="11.4"/>
	<rect x="534.9" y="263.6" class="st2" width="11.4" height="11.4"/>
	<rect x="550.5" y="263.6" class="st1" width="11.4" height="11.4"/>
	<rect x="566.1" y="263.6" class="st4" width="11.4" height="11.4"/>
	<rect x="581.7" y="263.6" class="st4" width="11.4" height="11.4"/>
	<rect x="597.3" y="263.6" class="st4" width="11.4" height="11.4"/>
	<rect x="612.9" y="263.6" class="st4" width="11.4" height="11.4"/>
	<rect x="628.5" y="263.6" class="st1" width="11.4" height="11.4"/>
	<rect x="644.1" y="263.6" class="st1" width="11.4" height="11.4"/>
	<rect x="659.7" y="263.6" class="st1" width="11.4" height="11.4"/>
	<rect x="675.3" y="263.6" class="st1" width="11.4" height="11.4"/>
	<rect x="690.9" y="263.6" class="st3" width="11.4" height="11.4"/>
	<rect x="706.5" y="263.6" class="st3" width="11.4" height="11.4"/>
	<rect x="722.1" y="263.6" class="st4" width="11.4" height="11.4"/>
	<rect x="737.7" y="263.6" class="st1" width="11.4" height="11.4"/>
	<rect x="753.3" y="263.6" class="st2" width="11.4" height="11.4"/>
	<rect x="363.3" y="278.1" class="st1" width="11.4" height="11.4"/>
	<rect x="378.9" y="278.1" class="st1" width="11.4" height="11.4"/>
	<rect x="394.5" y="278.1" class="st4" width="11.4" height="11.4"/>
	<rect x="410.1" y="278.1" class="st1" width="11.4" height="11.4"/>
	<rect x="425.7" y="278.1" class="st1" width="11.4" height="11.4"/>
	<rect x="441.3" y="278.1" class="st3" width="11.4" height="11.4"/>
	<rect x="456.9" y="278.1" class="st3" width="11.4" height="11.4"/>
	<rect x="472.5" y="278.1" class="st1" width="11.4" height="11.4"/>
	<rect x="488.1" y="278.1" class="st1" width="11.4" height="11.4"/>
	<rect x="503.7" y="278.1" class="st4" width="11.4" height="11.4"/>
	<rect x="519.3" y="278.1" class="st2" width="11.4" height="11.4"/>
	<rect x="534.9" y="278.1" class="st1" width="11.4" height="11.4"/>
	<rect x="550.5" y="278.1" class="st2" width="11.4" height="11.4"/>
	<rect x="566.1" y="278.1" class="st2" width="11.4" height="11.4"/>
	<rect x="581.7" y="278.1" class="st2" width="11.4" height="11.4"/>
	<rect x="597.3" y="278.1" class="st1" width="11.4" height="11.4"/>
	<rect x="612.9" y="278.1" class="st2" width="11.4" height="11.4"/>
	<rect x="628.5" y="278.1" class="st1" width="11.4" height="11.4"/>
	<rect x="644.1" y="278.1" class="st1" width="11.4" height="11.4"/>
	<rect x="659.7" y="278.1" class="st1" width="11.4" height="11.4"/>
	<rect x="675.3" y="278.1" class="st1" width="11.4" height="11.4"/>
	<rect x="690.9" y="278.1" class="st1" width="11.4" height="11.4"/>
	<rect x="706.5" y="278.1" class="st3" width="11.4" height="11.4"/>
	<rect x="722.1" y="278.1" class="st1" width="11.4" height="11.4"/>
	<rect x="737.7" y="278.1" class="st1" width="11.4" height="11.4"/>
	<rect x="753.3" y="278.1" class="st2" width="11.4" height="11.4"/>
	<rect x="363.3" y="292.6" class="st1" width="11.4" height="11.4"/>
	<rect x="378.9" y="292.6" class="st1" width="11.4" height="11.4"/>
	<rect x="394.5" y="292.6" class="st1" width="11.4" height="11.4"/>
	<rect x="410.1" y="292.6" class="st4" width="11.4" height="11.4"/>
	<rect x="425.7" y="292.6" class="st1" width="11.4" height="11.4"/>
	<rect x="441.3" y="292.6" class="st1" width="11.4" height="11.4"/>
	<rect x="456.9" y="292.6" class="st3" width="11.4" height="11.4"/>
	<rect x="472.5" y="292.6" class="st1" width="11.4" height="11.4"/>
	<rect x="488.1" y="292.6" class="st1" width="11.4" height="11.4"/>
	<rect x="503.7" y="292.6" class="st1" width="11.4" height="11.4"/>
	<rect x="519.3" y="292.6" class="st2" width="11.4" height="11.4"/>
	<rect x="534.9" y="292.6" class="st1" width="11.4" height="11.4"/>
	<rect x="550.5" y="292.6" class="st2" width="11.4" height="11.4"/>
	<rect x="566.1" y="292.6" class="st2" width="11.4" height="11.4"/>
	<rect x="581.7" y="292.6" class="st1" width="11.4" height="11.4"/>
	<rect x="597.3" y="292.6" class="st1" width="11.4" height="11.4"/>
	<rect x="612.9" y="292.6" class="st1" width="11.4" height="11.4"/>
	<rect x="628.5" y="292.6" class="st1" width="11.4" height="11.4"/>
	<rect x="644.1" y="292.6" class="st1" width="11.4" height="11.4"/>
	<rect x="659.7" y="292.6" class="st1" width="11.4" height="11.4"/>
	<rect x="675.3" y="292.6" class="st1" width="11.4" height="11.4"/>
	<rect x="690.9" y="292.6" class="st1" width="11.4" height="11.4"/>
	<rect x="706.5" y="292.6" class="st1" width="11.4" height="11.4"/>
	<rect x="722.1" y="292.6" class="st1" width="11.4" height="11.4"/>
	<rect x="737.7" y="292.6" class="st4" width="11.4" height="11.4"/>
	<rect x="753.3" y="292.6" class="st2" width="11.4" height="11.4"/>
	<rect x="363.3" y="307" class="st3" width="11.4" height="11.4"/>
	<rect x="378.9" y="307" class="st3" width="11.4" height="11.4"/>
	<rect x="394.5" y="307" class="st3" width="11.4" height="11.4"/>
	<rect x="410.1" y="307" class="st3" width="11.4" height="11.4"/>
	<rect x="425.7" y="307" class="st3" width="11.4" height="11.4"/>
	<rect x="441.3" y="307" class="st1" width="11.4" height="11.4"/>
	<rect x="456.9" y="307" class="st1" width="11.4" height="11.4"/>
	<rect x="472.5" y="307" class="st1" width="11.4" height="11.4"/>
	<rect x="488.1" y="307" class="st1" width="11.4" height="11.4"/>
	<rect x="503.7" y="307" class="st1" width="11.4" height="11.4"/>
	<rect x="519.3" y="307" class="st1" width="11.4" height="11.4"/>
	<rect x="534.9" y="307" class="st2" width="11.4" height="11.4"/>
	<rect x="550.5" y="307" class="st1" width="11.4" height="11.4"/>
	<rect x="566.1" y="307" class="st1" width="11.4" height="11.4"/>
	<rect x="581.7" y="307" class="st1" width="11.4" height="11.4"/>
	<rect x="597.3" y="307" class="st2" width="11.4" height="11.4"/>
	<rect x="612.9" y="307" class="st1" width="11.4" height="11.4"/>
	<rect x="628.5" y="307" class="st1" width="11.4" height="11.4"/>
	<rect x="644.1" y="307" class="st1" width="11.4" height="11.4"/>
	<rect x="659.7" y="307" class="st1" width="11.4" height="11.4"/>
	<rect x="675.3" y="307" class="st1" width="11.4" height="11.4"/>
	<rect x="690.9" y="307" class="st1" width="11.4" height="11.4"/>
	<rect x="706.5" y="307" class="st1" width="11.4" height="11.4"/>
	<rect x="722.1" y="307" class="st1" width="11.4" height="11.4"/>
	<rect x="737.7" y="307" class="st1" width="11.4" height="11.4"/>
	<rect x="753.3" y="307" class="st2" width="11.4" height="11.4"/>
	<circle class="st5" cx="644.7" cy="333.4" r="15.6"/>
	<path class="st6" d="M643.9,313.6c1.6,6.8,2.9,13.6,4,20.5c0.3,2,0.6,4.2-0.1,6.1c-0.6,1.6-1.9,2.9-2.9,4.3c-1,1.4-1.7,3.2-1.1,4.8
		c0.6,1.6,2.4,2.5,4,3c4.8,1.3,9.9,0.4,14.7-1.1c2.2-0.6,4.2-1.4,6.2-2.6c2-1.3,3.7-3.1,5.2-4.9c7-8.5,11.6-18.6,15.9-28.7
		c-5.6,0.5-11.1-1.7-14.8-6c-1.8-2.1-3.1-5-2.1-7.5c-2.9,1.6-6.4,1.7-9.5,2.8c-1.9,0.7-3.8,1.7-5.6,2.8c-2.1,1.2-4.3,2.5-6.4,3.8
		C649,312.4,646.7,313.7,643.9,313.6z"/>
	<path class="st5" d="M676.5,325.3c-2.7,5.3-6.3,10.4-11.4,13.6c-5.1,3.2-11.9,4-17,0.9c-2.5-1.5-4.4-3.9-6.6-5.8
		c-2.2-2-4.9-3.6-7.9-3.4c-3.2,0.3-5.8,2.8-7.9,5.2c-3.3,3.7-6.5,7.5-8.8,11.9c-4.5,8.4-5.5,18.1-5.3,27.6
		c0.2,9.5,1.6,18.9,1.6,28.4c0,11.7-1.9,23.2-3.9,34.7c18.4-2.3,36.8,2.7,55.2,4.6c11.8,1.2,23.7,1.2,35.5,1.2c2.1,0,4.3-0.1,6-1.2
		c1.1-0.8,1.9-1.8,2.5-3c1.6-3,2.3-6.5,2.8-9.9c1.2-8.6,1.2-17.3,1.2-26c0.1-21,0.2-42.1-2.5-63c-0.7-5.1-1.5-10.3-3.5-15.1
		s-5.2-9.2-9.7-11.8c-2.9-1.7-9.6-4.5-13-2.9C680.1,313.2,678.3,321.7,676.5,325.3z"/>
	<path class="st7" d="M677.9,384.6c-0.7-13-3.5-26.8,2.5-38.3c1.5-2.8-3.8-6.4-2.2-9.1c2-3.3,3.5-6.9,4.5-10.7
		c0.3-1.3,0.6-2.7,0.3-4c-0.6-2.4-2.9-3.8-4.9-5.2c-2.2-1.6-3.3-6.4-4-9.1s5.6,0.5,8.2-0.4c3.5-1.3,8-0.5,11.6,0.8
		c2,0.7,4.1,0.8,6.2,0.8c4.1,0.1,8.2,0.2,12.2-0.3c1.8-0.2,3.6-0.6,5.5-0.5c4.7,0.3,8.7,3.4,11.5,7.2c2.8,3.8,4.5,8.2,6.8,12.2
		c1.9,3.4,4.1,6.6,5.7,10.1c1.4,3.1,2.3,6.5,3.2,9.8l2.3,8.6c0.4,1.2,0.6,2.5,0.6,3.8c-0.1,1.4-0.7,2.7-1.3,3.9
		c-2.3,4.5-5.1,8.8-8.4,12.7c-4.8,5.9-10.7,11.3-13.6,18.3c-1.1,2.8-1.7,5.7-2.3,8.6c-2.3,11.7-3.9,23.5-4.9,35.4
		c-5.2-2.4-10.7-4.3-16.3-5.5c-2.8-0.6-5.6-1-8.5-1.3c-2.5-0.3-5.7,0.2-8.1-0.4c-4-1.1-4.4-7.9-5-11.4c-1-5.6-1.2-11.3-1.2-17
		C678,397.5,678.2,391.1,677.9,384.6z"/>
	<path class="st7" d="M590.4,360.4c1.9,10.7,4,21.5,8.1,31.6c-0.1,0.1-0.2,0.2-0.3,0.3c-0.4,0.3-0.7,0.6-1.1,0.9
		c-0.9,0.6-1.9,1.2-2.7,2c-0.3,0.3-0.5,0.7-0.7,1.1c-0.3,0.6-0.3,1.4,0,2c-2.1,0.9-4.6,0.7-7,0.6c-2.1-0.1-4.1,0-5.7,1.1
		c-2.3,1.6-3,4.6-3.4,7.4c-0.1,1-0.3,2-0.4,3c-0.1,0.9-0.2,1.9-0.2,2.8c-0.2,3.1-0.2,6.3-0.1,9.4c0,0.6,0.1,1.1,0.1,1.7
		c-7.3-0.2-14-4-20.3-7.7c-1.4-0.8-2.9-1.7-3.9-3.1c-0.9-1.4-1.2-3-1-4.6c0-0.2,0-0.4,0.1-0.7c0.2-1.3,0.5-2.6,1-3.9
		c2-5.3,4.9-10.3,8.6-14.6c1.6-1.9,3.4-3.7,4.2-6c0.3-1,0.4-2.1,0.8-3.1c1.5-4.4,6.8-6.5,8.7-10.8c0.4-1,0.7-2.1,1.2-3.1
		c0.5-0.8,1.1-1.5,1.9-2.1c0.3-0.3,0.7-0.5,1-0.8c3.1-2.5,6.2-5.1,9.1-7.8c0.5-0.5,1.1-1,1.6-1.5
		C589.9,356.4,590.1,358.4,590.4,360.4z"/>
	<path class="st7" d="M635.5,328.6c-0.6,0.7-1.3,1.3-2,2l-0.2,0.2l-0.7,0.7c-1.3,1.1-2.5,2.5-3.4,3.9l-0.1,0.1
		c-2.3,4.1-1.4,9.1-0.8,13.8c0.8,5.8,1.1,11.6,1.1,17.4c-0.1,8.1-1.1,16.1-1.1,24.1c0,1.8,0,3.6,0.1,5.5c0.1,3,0.4,5.9,0.6,8.9
		c0.3,3.2,0.6,6.5,1,9.7c0.3,2.5,0.5,5,0.7,7.5c0.1,1.3,0.2,2.6,0.3,3.9c0.1,1.5,0.2,3,0.2,4.6l0,0c0,1,0,1.9,0,2.9
		c0,0.6,0,1.1,0,1.6c0,1,0,2.1-0.1,3.1c-0.1,1.3-0.2,2.7-0.3,4c-0.1,1.5-0.4,3.1-1.4,4.1c-0.1,0.1-0.1,0.1-0.2,0.2l-1.4-0.2
		c-10-1.2-20.1-1.4-30.1-0.5c0.2-1.5,0.4-3,0.6-4.5c0.1-0.7,0.2-1.4,0.3-2.2c0.1-0.8,0.2-1.6,0.3-2.5c0.1-0.9,0.2-1.8,0.3-2.7
		c0.2-2.3,0.4-4.6,0.6-6.9c0.3-3.4,0.5-6.7,0.6-10.1c0.1-1.6,0.1-3.2,0.2-4.8c0.1-2,0.1-4,0.1-6c0-2,0-3.9,0-5.9
		c0-0.6,0-1.3-0.1-1.9c0-0.6-0.1-1.1-0.2-1.7c-0.3-1.3-0.8-2.6-1.3-3.8c-0.1-0.2-0.2-0.4-0.3-0.7c-0.1-0.1-0.1-0.2-0.2-0.4
		c2.6-2.3,4.4-5.4,6.2-8.4c2.9-4.9,5.8-10,6.3-15.6c0.5-5.6-2.3-11.9-7.7-13.7c-1.5-0.4-3-0.6-4.5-0.8c-1.4-0.3-4.4-0.8-6-1.8
		c-0.9,0.9-1.8,1.8-2.7,2.7c0.1-1.4,0.4-2.7,1-3.9l0.6,0c-0.1-0.1-0.1-0.3-0.1-0.4c0-0.5,0.3-1,1-1.6c2.1-1.8,5.4-2.2,6.8-4.6
		c0.6-1,0.6-2.2,1.1-3.3c1.3-3,5-4.1,7.2-6.5c2.2-2.4,2.8-5.8,4.6-8.5c1.3-2,3.2-3.5,5.4-4.5c0.2-0.1,0.4-0.2,0.5-0.2
		c3.7-1.6,8.1-2,12-1.9c1.5,0,5.4,0,7.3,0.8c0.3,0.1,0.6,0.3,0.8,0.5C640.2,322.4,637,327,635.5,328.6z"/>
	<path class="st7" d="M591.1,350.2c7-2.1,14.5-1.3,20.9,2.2c3.2,1.8,6.1,4.3,7.9,7.5c2.7,4.8,2.5,10.7,2.4,16.2
		c-0.1,2.8-0.2,5.6-1.4,8.1c-1.4,2.9-4.1,4.8-6.8,6.4c-1.7,1.1-3.6,1.9-5.5,2.4c-3,0.7-6.1,0.1-9.2-0.4c-3.3-0.6-6.8-1.3-9.1-3.8
		c-1.3-1.4-2.1-3.3-2.8-5.1c-1-2.6-2.1-5.2-3.1-7.8c-1.8-4.5-2.4-8.3,0-12.7c1.1-2,2.4-3.9,3.5-5.9
		C588.3,356.2,590.3,350.4,591.1,350.2z"/>
	<path class="st8" d="M779.1,427.5v13.4c-9.2,3.8-19,5.8-29,5.7H629.5c-0.1,0.1-0.1,0.1-0.2,0.2l-1.4-0.2H413.3
		c-18,0-34.7-4.9-48.4-13.1V413l103.2-11.9h0.1l60.1,5.1l15.6,1.3l8.1,0.7l16.7,1.4l8.6,0.7l12.5,1.1l1.8,0.1l9,0.8l12.2,1l17.2,1.5
		l28.7,2.4l20.2,1.7l33.2,2.8l6.3,0.5l0.7,0.1l0.6,0l8.3,0.7l9.1,0.8l1.1,0.1L779.1,427.5z"/>
	<polygon class="st9" points="657.9,427 528.5,404.9 523.5,430.3 582.8,437.4 601.1,439.7 651.3,429.8 	"/>
	<path class="st9" d="M590.9,438.4l64.8-12.2c1.2-0.2,2.4,0.6,2.6,1.8c0,0.1,0,0.3,0,0.4l0,0c0,1.1-0.8,2-1.8,2.2l-63.3,11.8
		L590.9,438.4z"/>
	<path class="st6" d="M619,400.1c2-0.2,4.1-0.5,5.9-1.4c2.2-1.1,4-3,6-4.4c4.6-3.1,10.6-3.6,15.9-1.8c5.2,1.8,9.6,5.6,12.6,10.2
		c2,3.1,3.5,7,2.1,10.4c-0.5,1-1.1,2-1.8,2.9l-3.7,4.9c-0.7,1-1.6,1.9-2.5,2.7c-1.4,1-3.1,1.4-4.8,1.7c-4.5,0.7-9.2,0.3-13.7,0.6
		c-7.9,0.5-15.5,3.1-23.4,3c-4.5,0-9-1-13.4-1.9l-19.6-4c-3.4-0.7-7.3-1.7-8.9-4.8c-0.7-1.4-0.9-3-0.9-4.6c-0.2-4.3,0-9.1,3-12.2
		c2.8-2.9,7.3-3.8,10.6-6c4.1-2.6,5.5-1.8,9.8,0.2C600.5,399.3,609.8,400.9,619,400.1z"/>
	<path class="st10" d="M619,400.1c2-0.2,4.1-0.5,5.9-1.4c2.2-1.1,4-3,6-4.4c4.6-3.1,10.6-3.6,15.9-1.8c5.2,1.8,9.6,5.6,12.6,10.2
		c2,3.1,3.5,7,2.1,10.4c-0.5,1-1.1,2-1.8,2.9l-3.7,4.9c-0.7,1-1.6,1.9-2.5,2.7c-1.4,1-3.1,1.4-4.8,1.7c-4.5,0.7-9.2,0.3-13.7,0.6
		c-7.9,0.5-15.5,3.1-23.4,3c-4.5,0-9-1-13.4-1.9l-19.6-4c-3.4-0.7-7.3-1.7-8.9-4.8c-0.7-1.4-0.9-3-0.9-4.6c-0.2-4.3,0-9.1,3-12.2
		c2.8-2.9,7.3-3.8,10.6-6c4.1-2.6,5.5-1.8,9.8,0.2C600.5,399.3,609.8,400.9,619,400.1z"/>
	<path class="st6" d="M697.7,393.9c-5.5,2.1-11,4.3-16.8,5.5c-9.6,2.1-19.7,1.8-29.3,4.2c-5.1,1.3-10.1,3.4-15.3,2.9
		c-2.3-0.2-4.6-0.9-6.8-1.4c-12.7-3.1-27.1-2.1-37.4,5.9c-3.5,2.8-6.4,6.2-9,9.8c-2.1,3-1.4,7.1,1.6,9.2c0.3,0.2,0.7,0.4,1.1,0.6
		c4,1.8,8.3,3,12.7,3.4c5.9,0.5,11.8-0.3,17.6-1.1c8.7-1.2,17.3-2.5,26-3.8c3.1-0.5,6.2-1,9.3-1.4c22.5-2.8,45.3,0.6,67.9-1.8
		c2.3-0.2,4.6-0.6,6.7-1.5c5.2-2.5,7.8-8.9,6.8-14.6c-1.1-5.7-5.3-10.4-10.3-13.3c-4.2-2.4-8.8-3.4-13.5-4.5
		C704.5,391,701.9,392.3,697.7,393.9z"/>
	<path class="st11" d="M745.9,359.9c2.5,3.2,3,7.6,2.7,11.7c-0.3,4.1-1.2,8.1-1.4,12.2c-0.2,5.6,1.2,11.2,0.9,16.8
		c-0.2,3.9-1.1,7.7-2.2,11.5c-1.3,4.4-3.2,9.2-7.2,11.3c-5.4,2.8-16.8,1.2-22.5,3.4c0.5-3.2,5.5-7.9,6-11.2c0.4-2.2,0.7-4.5,0.3-6.8
		c-0.5-2.9-2.2-5.4-4.2-7.5c-3.2-3.4-7.3-5.9-11.8-6.7c-4.5-0.8-15.7-0.1-19.3,2.7c-0.4-3,7.9-5.8,10.8-6.5c1.5-0.3,3.1-0.1,4.3-1.1
		c2.2-1.8,0.6-5.2,0.7-8.1c0.1-2.2,1.4-4.3,1.7-6.5c0.4-3.6-1.9-7.2-1-10.7c0.3-1.3,1.1-2.4,1.6-3.7c1.6-3.8,0.9-8.1,0-12.1
		c-0.5-2.5-1-5.4,0.4-7.5c1.3-2,5,5.1,7.4,4.8c7.8-1.1,14.9-6.9,21.2-2.1c3.2,2.4,3.6,4.9,4.9,8.4
		C740.5,355.5,743.8,357.2,745.9,359.9z"/>
	<path class="st7" d="M747.2,359.9c2.5,3.2,3,7.6,2.7,11.7c-0.3,4.1-1.2,8.1-1.4,12.2c-0.2,5.6,1.2,11.2,0.9,16.8
		c-0.2,3.9-1.1,7.7-2.2,11.5c-1.3,4.4-3.2,9.2-7.2,11.3c-5.4,2.8-16.8,1.2-22.5,3.4c0.5-3.2,5.5-7.9,6-11.2c0.4-2.2,0.7-4.5,0.3-6.8
		c-0.5-2.9-2.2-5.4-4.2-7.5c-3.2-3.4-7.3-5.9-11.8-6.7c-4.5-0.8-15.7-0.1-19.3,2.7c-0.4-3,7.9-5.8,10.8-6.5c1.5-0.3,3.1-0.1,4.3-1.1
		c2.2-1.8,0.6-5.2,0.7-8.1c0.1-2.2,1.4-4.3,1.7-6.5c0.4-3.6-1.9-7.2-1-10.7c0.3-1.3,1.1-2.4,1.6-3.7c1.6-3.8,0.9-8.1,0-12.1
		c-0.5-2.5-1-5.4,0.4-7.5c1.3-2,3.8-2.8,6.2-3.1c7.9-1.1,16,1,22.4,5.8c3.2,2.4,3.6,4.9,4.9,8.4
		C741.9,355.5,745.1,357.2,747.2,359.9z"/>
	<path class="st9" d="M451.2,338.7l24.3,89.9c0.6,2.3,2.6,3.9,4.9,4.1l109.5,10.5c3.1,0.3,5.8-2,6.1-5c0.1-0.6,0-1.3-0.1-1.9
		l-26.6-108.4c-0.7-2.7-3.1-4.5-5.9-4.3l-107.2,8c-3.1,0.2-5.4,2.9-5.2,6C451.1,338,451.1,338.3,451.2,338.7z"/>
	<ellipse class="st12" cx="668.2" cy="344" rx="12" ry="12.2"/>
	<path class="st12" d="M678.1,321.8c0,0,2.5,7.5-4.9,10.7l-1,1.7l4.7,4.6c0,0,5.8-10.5,5.2-14.3C682,324.5,681.1,320.7,678.1,321.8z
		"/>
	<circle class="st2" cx="669.6" cy="344.6" r="11.6"/>
	<path class="st2" d="M682.1,326.2l-1.8-3l-2.7-0.4c0.6-10-2-13-2-13l-0.6-0.1l-2.6-0.3l-4.9-5.1v-1.5c7,0.8,10.8,4.1,12.9,8
		C683.9,317.7,682.1,326.2,682.1,326.2z"/>
	<path class="st13" d="M675,307.9v1.8l-2.6-0.3l-4.9-5.1C667.4,304.4,675,306.1,675,307.9z"/>
	<path class="st13" d="M682.1,326.2l-1.8-3v-12.3C683.9,317.7,682.1,326.2,682.1,326.2z"/>
	<ellipse transform="matrix(0.866 -0.5 0.5 0.866 -83.5486 366.5828)" class="st12" cx="642.3" cy="339.2" rx="6.5" ry="11.8"/>
	<path class="st2" d="M644,338.2c3.3,5.6,7.2,9.4,4.2,11.2c-3.1,1.8-12.1,0.9-15.3-4.7c-3.3-5.6-0.3-13.4,2.8-15.2
		C638.7,327.7,640.8,332.6,644,338.2z"/>
	<path class="st11" d="M673,297.6c0,18-12.3,35.3-30.3,35.3c-18,0-32.6-14.6-32.6-32.6s14.6-32.6,32.6-32.6
		C660.7,267.8,673,279.6,673,297.6z"/>
	<circle class="st6" cx="642.7" cy="299.5" r="32.6"/>
	<path class="st14" d="M639.8,285.1c3.9,1.4,6.2,5.4,9.7,7.7c4.9,3.1,11.3,2.3,16.9,0.8c3.1-0.9,6.4-1.9,9.5-0.9
		c0.5,0.2,1,0.3,1.4,0.2c0.7-0.2,1-0.9,1.2-1.6c3.8-11.4,2.1-24.2-3.7-34.7c-1.5-2.7-3.3-5.3-5.7-7.2c-1.9-1.5-4.2-2.5-6.5-3.3
		c-4.2-1.5-8.5-2.6-12.9-3.2c-0.8-0.1-1.6-0.2-2.4-0.1c-1.1,0.2-2,0.8-3,1.3c-4.1,2.2-8.7,3.4-13.4,3.6c-6.3,0.2-13.4-1.2-18.2,2.8
		c-5.8,4.8-4.4,14.2-8.1,20.8c-2.5,4.3-7.3,7.5-8.1,12.4c-0.2,1.5-0.1,3,0.3,4.5c1.8,7.6,9.2,13.4,17,13.6c1.2,0.1,2.4-0.2,3.5-0.7
		c0.7-0.5,1.3-1.1,1.8-1.7C624.3,293.1,630.1,281.5,639.8,285.1z"/>
	<path class="st11" d="M678.6,287.9c-0.2,0.7-0.6,1.4-1.2,1.6c-0.5,0.1-1,0-1.4-0.2c-3.1-0.9-6.4,0.1-9.5,0.9
		c-5.6,1.5-12,2.4-16.9-0.8c-3.5-2.2-5.8-6.3-9.7-7.7c-9.7-3.6-15.5,8-20.7,14.1c-0.5,0.7-1.1,1.3-1.8,1.7c-1.1,0.6-2.3,0.8-3.5,0.7
		c-7.8-0.1-15.1-6-17-13.6c-0.1-0.4-0.2-0.9-0.3-1.3c0,0,0,0.1,0,0.1c-0.2,1.5-0.1,3,0.3,4.5c1.8,7.6,9.2,13.4,17,13.6
		c1.2,0.1,2.4-0.2,3.5-0.7c0.7-0.5,1.3-1.1,1.8-1.7c5.1-6.1,11-17.6,20.7-14.1c3.9,1.4,6.2,5.4,9.7,7.7c4.9,3.1,11.3,2.3,16.9,0.8
		c3.1-0.9,6.4-1.9,9.5-0.9c0.5,0.2,1,0.3,1.4,0.2c0.7-0.2,1-0.9,1.2-1.6c1.5-4.6,2.2-9.5,2-14.4
		C680.4,280.5,679.8,284.3,678.6,287.9z"/>
</g>
</svg>
